# AST/ASF file generated using VICON BodyLanguage
# -----------------------------------------------
:version 1.10
:name VICON
:units
  mass 1.0
  length 0.45
  angle deg
:documentation
   .ast/.asf automatically generated from VICON data using
   VICON BodyBuilder and BodyLanguage model FoxedUp or BRILLIANT.MOD
:root
   order TX TY TZ RX RY RZ
   axis XYZ
   position 0 0 0  
   orientation 0 0 0 
:bonedata
  begin
     id 1 
     name lhipjoint
     direction 0.707368 -0.647095 0.284426 
     length 2.60678 
     axis 0 0 0  XYZ
  end
  begin
     id 2 
     name lfemur
     direction 0.34202 -0.939693 0  
     length 6.63812  
     axis 0 0 20  XYZ
    dof rx ry rz
    limits (-160.0 20.0)
           (-70.0 70.0)
           (-60.0 70.0)
  end
  begin
     id 3 
     name ltibia
     direction 0.34202 -0.939693 0   
     length 7.51178   
     axis 0 0 20   XYZ
    dof rx
    limits (-10.0 170.0)
  end
  begin
     id 4 
     name lfoot
     direction 0.121251 -0.333133 0.935051   
     length 1.83716   
     axis -90 7.62852e-016 20   XYZ
    dof rx rz
    limits (-45.0 90.0)
           (-70.0 20.0)
  end
  begin
     id 5 
     name ltoes
     direction 1.53611e-011 -4.21962e-011 1   
     length 0.916133   
     axis -90 7.62852e-016 20   XYZ
    dof rx
    limits (-90.0 20.0)
  end
  begin
     id 6 
     name rhipjoint
     direction -0.692419 -0.660507 0.290321   
     length 2.55385  
     axis 0 0 0  XYZ 
  end
  begin
     id 7 
     name rfemur
     direction -0.34202 -0.939693 0   
     length 7.29079   
     axis 0 0 -20   XYZ
    dof rx ry rz
    limits (-160.0 20.0)
           (-70.0 70.0)
           (-70.0 60.0)
  end
  begin
     id 8 
     name rtibia
     direction -0.34202 -0.939693 0   
     length 7.47143   
     axis 0 0 -20   XYZ
    dof rx
    limits (-10.0 170.0)
 end
 begin
     id 9 
     name rfoot
     direction -0.119907 -0.329441 0.936532   
     length 1.79439  
     axis -90 -7.62852e-016 -20   XYZ
    dof rx rz
    limits (-45.0 90.0)
           (-20.0 70.0)
  end
  begin
     id 10 
     name rtoes
     direction -1.53571e-011 -4.21961e-011 1   
     length 0.896039   
     axis -90 -7.62852e-016 -20   XYZ
    dof rx
    limits (-90.0 20.0)
  end
  begin
     id 11 
     name lowerback
     direction 0.0367721 0.992912 -0.113016   
     length 1.73542   
     axis 0 0 0   XYZ
    dof rx ry rz
    limits (-20.0 45.0)
           (-30.0 30.0)
           (-30.0 30.0)
  end
  begin
     id 12 
     name upperback
     direction -0.000314626 0.990678 0.136227   
     length 1.7514   
     axis 0 0 0   XYZ
    dof rx ry rz
    limits (-20.0 45.0)
           (-30.0 30.0)
           (-30.0 30.0)
  end
  begin
     id 13 
     name thorax
     direction -0.0226159 0.981151 0.191917   
     length 1.71471   
     axis 0 0 0   XYZ
    dof rx ry rz
    limits (-20.0 45.0)
           (-30.0 30.0)
           (-30.0 30.0)
  end
  begin
     id 14 
     name lowerneck
     direction 0.0219333 0.998071 0.0580739   
     length 1.65882   
     axis 0 0 0   XYZ
    dof rx ry rz
    limits (-20.0 45.0)
           (-30.0 30.0)
           (-30.0 30.0)
  end
  begin
     id 15 
     name upperneck
     direction 0.0384529 0.980058 -0.194957   
     length 1.6612   
     axis 0 0 0   XYZ
    dof rx ry rz
    limits (-20.0 45.0)
           (-30.0 30.0)
           (-30.0 30.0)
  end
  begin
     id 16
     name head
     direction 0.00592123 0.997421 -0.0715234  
     length 1.68077  
     axis 0 0 0   XYZ
    dof rx ry rz
    limits (-20.0 45.0)
           (-30.0 30.0)
           (-30.0 30.0)
  end
  begin
     id 17 
     name lclavicle
     direction 0.904803 0.417826 0.0821728  
     length 3.42227  
     axis 0 0 0   XYZ
    dof ry rz
    limits (-20.0 10.0)
           (0.0 20.0)
  end
  begin
     id 18 
     name lhumerus
     direction 1 -4.48965e-011 -2.68786e-027   
     length 5.11878   
     axis -180 -30 -90   XYZ
    dof rx ry rz
    limits (-60.0 90.0)
           (-90.0 90.0)
           (-90.0 90.0)
  end
  begin
     id 19
     name lradius
     direction 1 -4.48965e-011 2.61168e-028   
     length 3.59971   
     axis -180 -30 -90   XYZ
    dof rx
    limits (-10.0 170.0)
  end
  begin
     id 20
     name lwrist
     direction 1 -4.48965e-011 1.58672e-027   
     length 1.79985   
     axis -1.65735e-015 90 90   XYZ
    dof ry
    limits (-180.0 0.0)
 end
  begin
     id 21 
     name lhand
     direction 1 -4.48942e-011 3.17344e-027   
     length 0.62877   
     axis -2.02492e-015 90 90   XYZ
    dof rx rz
    limits (-90.0 90.0)
           (-45.0 45.0)
  end
  begin
     id 22 
     name lfingers
     direction 1 -4.49011e-011 6.34687e-027   
     length 0.506931   
     axis -4.04985e-015 90 90   XYZ
    dof rx
    limits (0.0 90.0)
  end
  begin
     id 23
     name lthumb
     direction 0.707107 -6.34982e-011 0.707107   
     length 0.727854   
     axis -90 45 2.85299e-015   XYZ
    dof rx rz
    limits (-45.0 45.0)
           (-45.0 45.0)
  end
  begin
     id 24 
     name rclavicle
     direction -0.945647 0.32488 0.0143075   
     length 3.52737  
     axis 0 0 0   XYZ 
    dof ry rz
    limits (-10.0 20.0)
           (-20.0 0.0)
  end
  begin
     id 25 
     name rhumerus
     direction -1 -4.48962e-011 1.92182e-027  
     length 5.4902   
     axis -180 30 90   XYZ
    dof rx ry rz
    limits (-90.0 60.0)
           (-90.0 90.0)
           (-90.0 90.0)
  end
  begin
     id 26 
     name rradius
     direction -1 -4.48967e-011 -5.97193e-028   
     length 3.20659   
     axis -180 30 90   XYZ
    dof rx
    limits (-10.0 170.0)
  end
  begin
     id 27 
     name rwrist
     direction -1 -4.48964e-011 1.58672e-027   
     length 1.6033   
     axis -1.65735e-015 -90 -90   XYZ
    dof ry
    limits (-180.0 0.0)
  end
  begin
     id 28
     name rhand
     direction -1 -4.49006e-011 3.17344e-027   
     length 0.691885   
     axis -2.02492e-015 -90 -90   XYZ
    dof rx rz
    limits (-90.0 90.0)
           (-45.0 45.0)
  end
  begin
     id 29
     name rfingers
     direction -1 -4.48908e-011 6.34687e-027   
     length 0.557815   
     axis -4.04985e-015 -90 -90   XYZ
    dof rx
    limits (0.0 90.0)
  end
  begin
     id 30
     name rthumb
     direction -0.707107 -6.34999e-011 0.707107   
     length 0.800915   
     axis -90 -45 -2.85299e-015   XYZ
    dof rx rz
    limits (-45.0 45.0)
           (-45.0 45.0)
  end
:hierarchy
  begin
    root lhipjoint rhipjoint lowerback
    lhipjoint lfemur
    lfemur ltibia
    ltibia lfoot
    lfoot ltoes
    rhipjoint rfemur
    rfemur rtibia
    rtibia rfoot
    rfoot rtoes
    lowerback upperback
    upperback thorax
    thorax lowerneck lclavicle rclavicle
    lowerneck upperneck
    upperneck head
    lclavicle lhumerus
    lhumerus lradius
    lradius lwrist
    lwrist lhand lthumb
    lhand lfingers
    rclavicle rhumerus
    rhumerus rradius
    rradius rwrist
    rwrist rhand rthumb
    rhand rfingers
  end

#!OML:ASF I:\Actors\actors\Patient Classification 1\Patient 1\Session 1\Subject1.ASF
:FULLY-SPECIFIED
:DEGREES
61
root 0.763656 17.4177 9.54428 11.7688 2.75396 -9.166
lowerback -2.08538 -0.466484 4.67502
upperback -10.2334 -0.220282 3.14386
thorax -9.68897 -0.338385 0.755351
lowerneck -2.21952 -12.6474 -11.7089
upperneck 16.512 -19.4663 15.8432
head 8.19618 -9.09698 5.24105
rclavicle 2.78299e-015 -9.14409e-015
rhumerus -46.0421 -23.1567 -69.7284
rradius 25.53
rwrist 34.7014
rhand 6.71598 -34.2346
rfingers 7.12502
rthumb 32.0053 -61.4394
lclavicle 2.78299e-015 -9.14409e-015
lhumerus -49.4292 20.3712 74.9322
lradius 26.0868
lwrist -3.69375
lhand -18.8203 -6.2477
lfingers 7.12502
lthumb 7.47865 23.6001
rfemur -3.957 26.2939 25.4237
rtibia 1.10074
rfoot -14.2834 -32.5598
rtoes 7.25398
lfemur 2.72236 -48.7952 -8.78124
ltibia -4.99535
lfoot -19.7239 53.1655
ltoes 6.33069
62
root 0.763896 17.4176 9.54513 11.7743 2.75214 -9.15181
lowerback -2.08561 -0.477591 4.64488
upperback -10.2443 -0.235398 3.1497
thorax -9.70089 -0.343215 0.7796
lowerneck -2.1862 -12.6426 -11.7253
upperneck 16.4939 -19.4623 15.8619
head 8.18727 -9.09737 5.25257
rclavicle -1.81391e-014 4.18442e-014
rhumerus -46.0551 -23.1589 -69.7025
rradius 25.516
rwrist 34.6739
rhand 6.64049 -34.2102
rfingers 7.12502
rthumb 31.9334 -61.4295
lclavicle -1.81391e-014 4.18442e-014
lhumerus -49.4612 20.4764 74.8649
lradius 26.0688
lwrist -3.769
lhand -18.8167 -6.21548
lfingers 7.12502
lthumb 7.48204 23.6322
rfemur -3.96585 26.329 25.4043
rtibia 1.11093
rfoot -14.3297 -32.6022
rtoes 7.2403
lfemur 2.70624 -48.7869 -8.79946
ltibia -4.96364
lfoot -19.8907 53.141
ltoes 6.6132
63
root 0.763663 17.4174 9.54425 11.7885 2.76654 -9.17353
lowerback -2.07566 -0.484976 4.65712
upperback -10.2613 -0.242586 3.15906
thorax -9.72663 -0.347713 0.783995
lowerneck -2.16076 -12.6435 -11.7383
upperneck 16.4936 -19.4651 15.8629
head 8.18447 -9.10091 5.25617
rclavicle -1.41137e-014 1.13307e-014
rhumerus -46.0845 -23.1636 -69.6844
rradius 25.5223
rwrist 34.6447
rhand 6.58203 -34.3094
rfingers 7.12502
rthumb 31.8778 -61.5398
lclavicle -1.41137e-014 1.13307e-014
lhumerus -49.4749 20.5004 74.8517
lradius 26.0623
lwrist -3.76733
lhand -18.8316 -6.23421
lfingers 7.12502
lthumb 7.46771 23.614
rfemur -4.00311 26.3535 25.4219
rtibia 1.13611
rfoot -14.322 -32.6465
rtoes 7.11452
lfemur 2.61876 -48.6773 -8.70898
ltibia -4.93212
lfoot -19.7377 53.0362
ltoes 6.23613
64
root 0.763761 17.4181 9.54405 11.7709 2.77834 -9.17077
lowerback -2.04093 -0.479921 4.67
upperback -10.2738 -0.233029 3.1459
thorax -9.76151 -0.34524 0.763153
lowerneck -2.12518 -12.6445 -11.7565
upperneck 16.4879 -19.4727 15.8882
head 8.18204 -9.10611 5.26862
rclavicle 3.18801e-014 -4.59193e-014
rhumerus -46.1573 -23.2326 -69.6146
rradius 25.5334
rwrist 34.7045
rhand 6.56402 -34.392
rfingers 7.12502
rthumb 31.8606 -61.6258
lclavicle 3.18801e-014 -4.59193e-014
lhumerus -49.4888 20.451 74.877
lradius 26.0726
lwrist -3.74201
lhand -18.8585 -6.31775
lfingers 7.12502
lthumb 7.44177 23.5314
rfemur -3.98869 26.3871 25.4259
rtibia 1.14213
rfoot -14.3262 -32.6817
rtoes 7.15485
lfemur 2.61954 -48.5857 -8.7155
ltibia -4.9289
lfoot -19.4 52.9646
ltoes 5.82418
65
root 0.763798 17.4186 9.54469 11.7538 2.78152 -9.1429
lowerback -2.0337 -0.487243 4.63294
upperback -10.2694 -0.243989 3.14559
thorax -9.76023 -0.347447 0.784047
lowerneck -2.12222 -12.6374 -11.7795
upperneck 16.4903 -19.4683 15.919
head 8.1874 -9.10343 5.28309
rclavicle -2.52208e-014 2.70347e-014
rhumerus -46.1835 -23.3061 -69.532
rradius 25.5107
rwrist 34.8109
rhand 6.58343 -34.3433
rfingers 7.12502
rthumb 31.8791 -61.5734
lclavicle -2.52208e-014 2.70347e-014
lhumerus -49.4919 20.4459 74.9085
lradius 26.0805
lwrist -3.74439
lhand -18.8334 -6.41072
lfingers 7.12502
lthumb 7.46593 23.4375
rfemur -3.95236 26.4295 25.4018
rtibia 1.10594
rfoot -14.32 -32.7382
rtoes 7.20542
lfemur 2.69372 -48.6655 -8.79904
ltibia -4.95743
lfoot -19.3942 53.0203
ltoes 5.96653
66
root 0.763526 17.4182 9.54487 11.7651 2.77363 -9.13519
lowerback -2.05084 -0.502588 4.59905
upperback -10.2694 -0.26594 3.16311
thorax -9.74988 -0.354386 0.822685
lowerneck -2.12401 -12.6338 -11.7945
upperneck 16.4954 -19.4638 15.9227
head 8.19069 -9.1017 5.28702
rclavicle -8.64713e-015 -1.28216e-014
rhumerus -46.1868 -23.3683 -69.4489
rradius 25.4638
rwrist 34.9497
rhand 6.64166 -34.2299
rfingers 7.12502
rthumb 31.9345 -61.449
lclavicle -8.64713e-015 -1.28216e-014
lhumerus -49.4958 20.4405 74.9551
lradius 26.1031
lwrist -3.71979
lhand -18.8099 -6.49495
lfingers 7.12502
lthumb 7.48868 23.3525
rfemur -3.96444 26.4381 25.3864
rtibia 1.09255
rfoot -14.2914 -32.7537
rtoes 7.13465
lfemur 2.75087 -48.858 -8.83592
ltibia -4.99784
lfoot -19.6563 53.1635
ltoes 6.2865
67
root 0.763395 17.418 9.54474 11.7713 2.77196 -9.15324
lowerback -2.0277 -0.503258 4.62628
upperback -10.2926 -0.263126 3.16146
thorax -9.79048 -0.356033 0.8068
lowerneck -2.08564 -12.6407 -11.8057
upperneck 16.4998 -19.4774 15.9235
head 8.1886 -9.11091 5.28959
rclavicle 7.15625e-015 6.95746e-016
rhumerus -46.2331 -23.3807 -69.4151
rradius 25.4384
rwrist 34.9601
rhand 6.60697 -34.2003
rfingers 7.12502
rthumb 31.9015 -61.426
lclavicle 7.15625e-015 6.95746e-016
lhumerus -49.5191 20.3626 74.9955
lradius 26.1382
lwrist -3.65024
lhand -18.8237 -6.56698
lfingers 7.12502
lthumb 7.47536 23.2809
rfemur -3.98252 26.4333 25.4033
rtibia 1.11005
rfoot -14.3209 -32.7273
rtoes 7.21851
lfemur 2.76989 -48.9568 -8.82391
ltibia -5.01636
lfoot -19.7519 53.2635
ltoes 6.35247
68
root 0.762949 17.4181 9.545 11.7648 2.78211 -9.16965
lowerback -2.00754 -0.504692 4.64038
upperback -10.3017 -0.262389 3.16385
thorax -9.81318 -0.357042 0.802141
lowerneck -2.07499 -12.647 -11.8444
upperneck 16.5174 -19.4947 15.9549
head 8.20276 -9.11931 5.30383
rclavicle 1.57537e-014 9.0447e-015
rhumerus -46.2511 -23.3761 -69.4134
rradius 25.4302
rwrist 34.9137
rhand 6.50964 -34.2173
rfingers 7.12502
rthumb 31.8088 -61.4614
lclavicle 1.57537e-014 9.0447e-015
lhumerus -49.5117 20.3077 75.0351
lradius 26.1636
lwrist -3.56722
lhand -18.8176 -6.56531
lfingers 7.12502
lthumb 7.4812 23.2824
rfemur -3.97105 26.455 25.4282
rtibia 1.11347
rfoot -14.3493 -32.7352
rtoes 7.3353
lfemur 2.74844 -48.8824 -8.78552
ltibia -5.01529
lfoot -19.5945 53.2294
ltoes 6.12124
69
root 0.76252 17.4179 9.54514 11.7628 2.78368 -9.16898
lowerback -2.01268 -0.510816 4.62091
upperback -10.295 -0.271391 3.1733
thorax -9.80231 -0.359145 0.823314
lowerneck -2.08803 -12.6473 -11.8804
upperneck 16.5295 -19.4998 15.9833
head 8.2168 -9.12076 5.31681
rclavicle -1.87852e-014 1.46107e-014
rhumerus -46.2489 -23.4149 -69.386
rradius 25.4323
rwrist 34.9593
rhand 6.48662 -34.2142
rfingers 7.12502
rthumb 31.7869 -61.4626
lclavicle -1.87852e-014 1.46107e-014
lhumerus -49.4777 20.2982 75.0844
lradius 26.1829
lwrist -3.48932
lhand -18.8594 -6.4445
lfingers 7.12502
lthumb 7.44083 23.4046
rfemur -3.97218 26.4718 25.4264
rtibia 1.13345
rfoot -14.4044 -32.7166
rtoes 7.54586
lfemur 2.72691 -48.8389 -8.76857
ltibia -4.99869
lfoot -19.7308 53.1516
ltoes 6.25475
70
root 0.762212 17.4177 9.54491 11.7685 2.77553 -9.16207
lowerback -2.01958 -0.511678 4.60555
upperback -10.2937 -0.273696 3.17364
thorax -9.79645 -0.358894 0.832172
lowerneck -2.08284 -12.6525 -11.8846
upperneck 16.5126 -19.5042 15.9818
head 8.21124 -9.12407 5.31656
rclavicle 7.20594e-015 -1.77912e-014
rhumerus -46.2548 -23.4679 -69.3523
rradius 25.4357
rwrist 34.9895
rhand 6.51722 -34.2365
rfingers 7.12502
rthumb 31.816 -61.4791
lclavicle 7.20594e-015 -1.77912e-014
lhumerus -49.4488 20.3199 75.1121
lradius 26.1883
lwrist -3.46858
lhand -18.9361 -6.2698
lfingers 7.12502
lthumb 7.3668 23.5819
rfemur -3.9841 26.4367 25.4137
rtibia 1.15041
rfoot -14.4311 -32.6541
rtoes 7.63198
lfemur 2.74733 -48.9507 -8.7935
ltibia -4.99264
lfoot -20.1818 53.1931
ltoes 6.82344
71
root 0.761586 17.4176 9.54486 11.7731 2.77254 -9.17689
lowerback -2.01765 -0.508273 4.60878
upperback -10.2977 -0.268258 3.17839
thorax -9.80207 -0.356318 0.835265
lowerneck -2.09068 -12.673 -11.8726
upperneck 16.5071 -19.5255 15.948
head 8.20917 -9.13535 5.29976
rclavicle 2.5022e-014 -3.68746e-014
rhumerus -46.2576 -23.4698 -69.3515
rradius 25.4544
rwrist 34.9338
rhand 6.56951 -34.2802
rfingers 7.12502
rthumb 31.8658 -61.5129
lclavicle 2.5022e-014 -3.68746e-014
lhumerus -49.4357 20.3661 75.1064
lradius 26.1744
lwrist -3.51387
lhand -18.9292 -6.21404
lfingers 7.12502
lthumb 7.37353 23.6375
rfemur -3.9757 26.4245 25.4341
rtibia 1.12328
rfoot -14.3929 -32.6611
rtoes 7.5319
lfemur 2.77044 -49.0398 -8.78974
ltibia -5.00204
lfoot -20.2981 53.273
ltoes 6.97338
72
root 0.761506 17.4174 9.54486 11.7792 2.78417 -9.19145
lowerback -2.01889 -0.510389 4.63492
upperback -10.3038 -0.270209 3.17455
thorax -9.80887 -0.359838 0.816995
lowerneck -2.09488 -12.6806 -11.8571
upperneck 16.5129 -19.5342 15.9293
head 8.20956 -9.13942 5.28968
rclavicle -1.88597e-014 2.43511e-014
rhumerus -46.2562 -23.4297 -69.3934
rradius 25.4765
rwrist 34.8655
rhand 6.58348 -34.3039
rfingers 7.12502
rthumb 31.8791 -61.534
lclavicle -1.88597e-014 2.43511e-014
lhumerus -49.4373 20.3806 75.0913
lradius 26.1712
lwrist -3.5277
lhand -18.9048 -6.29375
lfingers 7.12502
lthumb 7.39707 23.5569
rfemur -3.9714 26.4398 25.453
rtibia 1.09443
rfoot -14.3641 -32.7129
rtoes 7.49268
lfemur 2.72497 -48.9361 -8.73643
ltibia -5.00003
lfoot -19.9065 53.2252
ltoes 6.36117
73
root 0.761502 17.4171 9.5446 11.7951 2.79454 -9.19947
lowerback -2.03265 -0.510892 4.66569
upperback -10.3119 -0.271245 3.16265
thorax -9.81054 -0.363707 0.787334
lowerneck -2.06011 -12.67 -11.8458
upperneck 16.488 -19.5207 15.9394
head 8.1928 -9.13463 5.2959
rclavicle -5.71506e-016 -4.96962e-015
rhumerus -46.2682 -23.4524 -69.3974
rradius 25.4817
rwrist 34.9073
rhand 6.58207 -34.3177
rfingers 7.12502
rthumb 31.8778 -61.5481
lclavicle -5.71506e-016 -4.96962e-015
lhumerus -49.4339 20.4004 75.0625
lradius 26.1712
lwrist -3.54681
lhand -18.8381 -6.36222
lfingers 7.12502
lthumb 7.46141 23.4862
rfemur -3.98568 26.4304 25.456
rtibia 1.07094
rfoot -14.2837 -32.7324
rtoes 7.33465
lfemur 2.65375 -48.8135 -8.66993
ltibia -4.99813
lfoot -19.6095 53.1565
ltoes 5.90619
74
root 0.760775 17.4166 9.54448 11.8233 2.78534 -9.20905
lowerback -2.03515 -0.502993 4.67813
upperback -10.3368 -0.25948 3.15619
thorax -9.83746 -0.359816 0.773547
lowerneck -2.02336 -12.6753 -11.8435
upperneck 16.4755 -19.5271 15.9274
head 8.18143 -9.14085 5.29322
rclavicle -6.13748e-015 -2.127e-014
rhumerus -46.3048 -23.4464 -69.4057
rradius 25.5118
rwrist 34.9333
rhand 6.62825 -34.3939
rfingers 7.12502
rthumb 31.9218 -61.6155
lclavicle -6.13748e-015 -2.127e-014
lhumerus -49.4514 20.4194 75.0341
lradius 26.1683
lwrist -3.59855
lhand -18.7789 -6.34305
lfingers 7.12502
lthumb 7.51858 23.5033
rfemur -4.00793 26.4567 25.4547
rtibia 1.04757
rfoot -14.2402 -32.7468
rtoes 7.22159
lfemur 2.62244 -48.8189 -8.62591
ltibia -5.01172
lfoot -19.7374 53.1751
ltoes 6.1718
75
root 0.759873 17.416 9.54423 11.8507 2.76355 -9.22492
lowerback -2.03793 -0.49642 4.69188
upperback -10.3572 -0.249426 3.15456
thorax -9.85903 -0.356564 0.76415
lowerneck -2.04395 -12.6978 -11.8129
upperneck 16.4922 -19.5475 15.8559
head 8.18279 -9.15177 5.26047
rclavicle 2.13197e-014 -3.65764e-014
rhumerus -46.3066 -23.3721 -69.4798
rradius 25.5587
rwrist 34.8399
rhand 6.70643 -34.4916
rfingers 7.12502
rthumb 31.9962 -61.6983
lclavicle 2.13197e-014 -3.65764e-014
lhumerus -49.4515 20.3874 75.0527
lradius 26.1612
lwrist -3.5864
lhand -18.822 -6.30803
lfingers 7.12502
lthumb 7.47693 23.5398
rfemur -4.05309 26.489 25.4576
rtibia 1.07281
rfoot -14.2763 -32.7478
rtoes 7.18541
lfemur 2.59077 -48.7747 -8.57201
ltibia -5.0298
lfoot -19.8242 53.1653
ltoes 6.39495
